<svg width="90" height="13" viewBox="0 0 90 13" fill="none" xmlns="http://www.w3.org/2000/svg">
<path d="M1.96939 12.1975C1.15065 11.9612 0.497879 11.6535 0 11.2799L0.868523 9.36228C1.34427 9.70843 1.90854 9.98316 2.56131 10.192C3.21409 10.4007 3.86686 10.5051 4.51964 10.5051C5.24433 10.5051 5.78647 10.3953 6.12945 10.181C6.47796 9.96668 6.64946 9.68096 6.64946 9.32382C6.64946 9.06008 6.54435 8.84579 6.33966 8.66997C6.13498 8.49964 5.86944 8.35678 5.54859 8.25238C5.22773 8.14799 4.79071 8.0326 4.24304 7.90622C3.40218 7.70842 2.71068 7.51062 2.17407 7.30732C1.63747 7.10951 1.17831 6.79084 0.791075 6.35127C0.403836 5.91171 0.215748 5.3238 0.215748 4.59302C0.215748 3.95566 0.38724 3.37872 0.735755 2.85674C1.08427 2.34026 1.60981 1.92817 2.30684 1.62597C3.0094 1.32377 3.86133 1.16992 4.87369 1.16992C5.58178 1.16992 6.26775 1.25234 6.94265 1.42267C7.61755 1.58751 8.20948 1.82926 8.71289 2.14245L7.92181 4.07104C6.8984 3.49411 5.87498 3.20839 4.85709 3.20839C4.13793 3.20839 3.61239 3.32378 3.26941 3.55455C2.92642 3.78532 2.75493 4.08752 2.75493 4.46664C2.75493 4.84577 2.95408 5.12599 3.34686 5.30731C3.73963 5.48863 4.34261 5.66995 5.15582 5.85127C5.99668 6.04907 6.68818 6.24687 7.22478 6.45017C7.76139 6.64797 8.22054 6.96116 8.60778 7.38974C8.99502 7.81831 9.18311 8.40074 9.18311 9.13151C9.18311 9.75789 9.00608 10.3348 8.65204 10.8513C8.29799 11.3678 7.76692 11.7799 7.06435 12.0821C6.35626 12.3843 5.4988 12.5381 4.48645 12.5381C3.62899 12.5491 2.78259 12.4337 1.96939 12.1975Z" fill="white"/>
<path d="M17.5917 6.92242C18.1062 7.48286 18.3662 8.17517 18.3662 9.00485C18.3662 9.64222 18.2003 10.2301 17.8628 10.7686C17.5254 11.3071 17.0109 11.7411 16.3194 12.0653C15.6279 12.3895 14.7815 12.5543 13.7802 12.5543C13.0002 12.5543 12.2312 12.4499 11.4789 12.2466C10.7265 12.0433 10.0848 11.7521 9.5593 11.373L10.5551 9.42793C10.9755 9.74112 11.4623 9.98288 12.0155 10.1587C12.5687 10.329 13.133 10.417 13.7138 10.417C14.3555 10.417 14.8645 10.2961 15.2296 10.0488C15.6002 9.80156 15.7828 9.4554 15.7828 9.00485C15.7828 8.10374 15.0913 7.65319 13.7138 7.65319H12.5466V5.97186L14.8202 3.41141H10.1125V1.37292H17.8573V3.02129L15.3624 5.84549C16.3305 6.00483 17.0717 6.36197 17.5917 6.92242Z" fill="white"/>
<path d="M24.6838 1.99417C24.5565 1.87329 24.4957 1.72494 24.4957 1.54912C24.4957 1.37329 24.5565 1.21944 24.6838 1.09307C24.811 0.966691 24.9604 0.90625 25.1429 0.90625C25.3199 0.90625 25.4748 0.966693 25.6021 1.08757C25.7293 1.20845 25.7902 1.3568 25.7902 1.53263C25.7902 1.70845 25.7293 1.8623 25.6021 1.98868C25.4748 2.11505 25.3255 2.17549 25.1429 2.17549C24.9659 2.17549 24.811 2.11505 24.6838 1.99417ZM24.7501 4.16452H25.5412V12.3569H24.7501V4.16452Z" fill="white"/>
<path d="M35.3495 4.99949C35.9525 5.59839 36.2512 6.45555 36.2512 7.57643V12.3622H35.4601V7.63687C35.4601 6.71379 35.2278 6.01598 34.7575 5.53246C34.2873 5.04894 33.6346 4.81268 32.7882 4.81268C31.8201 4.81268 31.0566 5.09839 30.4979 5.67532C29.9392 6.25225 29.6626 7.02698 29.6626 7.99952V12.3622H28.8715V4.16432H29.6294V5.93906C29.9115 5.36213 30.3375 4.91158 30.9017 4.5874C31.466 4.26322 32.1298 4.09839 32.8988 4.09839C33.9333 4.10388 34.752 4.40058 35.3495 4.99949Z" fill="white"/>
<path d="M45.9875 4.99949C46.5905 5.59839 46.8892 6.45555 46.8892 7.57643V12.3622H46.0981V7.63687C46.0981 6.71379 45.8658 6.01598 45.3955 5.53246C44.9253 5.04894 44.2725 4.81268 43.4261 4.81268C42.458 4.81268 41.6946 5.09839 41.1359 5.67532C40.5772 6.25225 40.3006 7.02698 40.3006 7.99952V12.3622H39.5095V4.16432H40.2674V5.93906C40.5495 5.36213 40.9755 4.91158 41.5397 4.5874C42.104 4.26322 42.7678 4.09839 43.5368 4.09839C44.5713 4.10388 45.39 4.40058 45.9875 4.99949Z" fill="white"/>
<path d="M51.2761 11.8896C50.651 11.5325 50.1586 11.038 49.799 10.4061C49.4394 9.77424 49.2624 9.05995 49.2624 8.26324C49.2624 7.46654 49.4394 6.75225 49.799 6.12037C50.1586 5.4885 50.651 4.99399 51.2761 4.63685C51.9012 4.2797 52.6037 4.10388 53.3838 4.10388C54.1638 4.10388 54.8663 4.2797 55.4914 4.63685C56.1166 4.99399 56.6089 5.4885 56.9685 6.12037C57.3281 6.75225 57.5051 7.46654 57.5051 8.26324C57.5051 9.05995 57.3281 9.77424 56.9685 10.4061C56.6089 11.038 56.1166 11.5325 55.4914 11.8896C54.8663 12.2468 54.1638 12.4226 53.3838 12.4226C52.6037 12.4226 51.9012 12.2468 51.2761 11.8896ZM55.0821 11.2797C55.58 10.9885 55.9783 10.5764 56.2659 10.0545C56.5536 9.53248 56.7029 8.93358 56.7029 8.26324C56.7029 7.59291 56.5591 6.9995 56.2659 6.47203C55.9783 5.95005 55.58 5.54345 55.0821 5.24674C54.5842 4.95553 54.0144 4.80718 53.3838 4.80718C52.7531 4.80718 52.1833 4.95553 51.6854 5.24674C51.1876 5.53795 50.7893 5.95005 50.5016 6.47203C50.2139 6.99401 50.0646 7.59291 50.0646 8.26324C50.0646 8.93358 50.2084 9.52699 50.5016 10.0545C50.7893 10.5764 51.1876 10.9885 51.6854 11.2797C52.1833 11.571 52.7531 11.7193 53.3838 11.7193C54.0144 11.7193 54.5842 11.571 55.0821 11.2797Z" fill="white"/>
<path d="M66.3452 4.16455L62.6166 12.3569H61.809L58.097 4.16455H58.9323L62.2183 11.4943L65.5375 4.16455H66.3452Z" fill="white"/>
<path d="M72.9504 4.87874C73.4981 5.39522 73.7747 6.15896 73.7747 7.16446V12.3623H73.0168V10.9007C72.7513 11.3843 72.3695 11.7579 71.8606 12.0216C71.3572 12.2909 70.7487 12.4227 70.0406 12.4227C69.1223 12.4227 68.3976 12.2084 67.8665 11.7799C67.3354 11.3513 67.0699 10.7854 67.0699 10.0821C67.0699 9.40074 67.3133 8.85128 67.8056 8.42821C68.298 8.00513 69.078 7.79084 70.1512 7.79084H72.9781V7.1315C72.9781 6.36776 72.7678 5.78534 72.3529 5.38973C71.938 4.99413 71.3295 4.79083 70.5274 4.79083C69.9797 4.79083 69.4542 4.88423 68.9563 5.07105C68.4584 5.25786 68.0325 5.51061 67.6839 5.8238L67.2912 5.25786C67.7005 4.88973 68.1984 4.60401 68.7793 4.40072C69.3601 4.19742 69.9631 4.09302 70.5993 4.09302C71.6172 4.10401 72.4027 4.36225 72.9504 4.87874ZM71.8993 11.3073C72.3806 10.9942 72.7402 10.5381 72.9836 9.9392V8.40073H70.1678C69.3546 8.40073 68.7682 8.54909 68.4031 8.8403C68.038 9.13151 67.8554 9.5381 67.8554 10.0491C67.8554 10.5821 68.0546 11.0051 68.4584 11.3128C68.8567 11.6205 69.421 11.7744 70.1512 11.7744C70.8372 11.7799 71.418 11.6205 71.8993 11.3073Z" fill="white"/>
<path d="M81.1211 11.8403C80.922 12.0271 80.673 12.1699 80.3688 12.2743C80.0701 12.3732 79.7547 12.4227 79.4283 12.4227C78.7092 12.4227 78.156 12.2249 77.7687 11.8348C77.3815 11.4447 77.1823 10.8952 77.1823 10.1919V4.84022H75.6666V4.16439H77.1823V2.37317H77.9734V4.16439H80.5956V4.84022H77.9734V10.115C77.9734 10.6479 78.1007 11.0545 78.3607 11.3293C78.6207 11.604 79.0024 11.7469 79.5058 11.7469C80.0203 11.7469 80.4462 11.593 80.7837 11.2908L81.1211 11.8403Z" fill="white"/>
<path d="M89.9834 8.45007H82.8858C82.908 9.08743 83.0684 9.65887 83.3782 10.1534C83.6824 10.6479 84.0973 11.0325 84.6174 11.3072C85.1374 11.582 85.7238 11.7138 86.3821 11.7138C86.9187 11.7138 87.4165 11.6149 87.8757 11.4226C88.3349 11.2303 88.7166 10.9446 89.0208 10.5655L89.48 11.082C89.1204 11.5105 88.6723 11.8402 88.1302 12.071C87.588 12.3017 87.0016 12.4171 86.3655 12.4171C85.5412 12.4171 84.811 12.2413 84.1693 11.8842C83.5276 11.527 83.0241 11.038 82.659 10.4061C82.2939 9.77975 82.1114 9.05996 82.1114 8.25776C82.1114 7.46105 82.2829 6.74676 82.6258 6.11488C82.9688 5.48301 83.439 4.9885 84.042 4.63136C84.645 4.27421 85.3144 4.09839 86.0667 4.09839C86.8136 4.09839 87.4885 4.27421 88.0804 4.62586C88.6778 4.97751 89.1425 5.46653 89.4855 6.09291C89.8285 6.71928 90 7.43358 90 8.23029L89.9834 8.45007ZM84.5012 5.18081C84.0365 5.43906 83.6659 5.7962 83.3893 6.26323C83.1127 6.73027 82.9467 7.25226 82.908 7.84017H89.231C89.1978 7.25226 89.0429 6.73028 88.7553 6.26873C88.4732 5.80719 88.097 5.45004 87.6323 5.18631C87.1676 4.92257 86.6476 4.79619 86.0667 4.79619C85.4859 4.79619 84.9659 4.92257 84.5012 5.18081Z" fill="white"/>
</svg>
