<svg width="30" height="29" viewBox="0 0 30 29" fill="none" xmlns="http://www.w3.org/2000/svg">
<g clip-path="url(#clip0_1:729)">
<path d="M27.3433 0H2.52628C1.37112 0 0.434784 0.93634 0.434784 2.0915V26.9085C0.434784 28.0637 1.37112 29 2.52628 29H27.3433C28.4984 29 29.4348 28.0637 29.4348 26.9085V2.0915C29.4348 0.93634 28.4984 0 27.3433 0V0ZM10.7213 21.9199H7.18984V11.2956H10.7213V21.9199ZM8.95566 9.84485H8.93265C7.74762 9.84485 6.9812 9.02909 6.9812 8.00956C6.9812 6.96702 7.77107 6.17383 8.97911 6.17383C10.1871 6.17383 10.9306 6.96702 10.9536 8.00956C10.9536 9.02909 10.1871 9.84485 8.95566 9.84485ZM23.4548 21.9199H19.9238V16.2362C19.9238 14.8078 19.4125 13.8336 18.1348 13.8336C17.1593 13.8336 16.5782 14.4907 16.3229 15.125C16.2296 15.352 16.2068 15.6693 16.2068 15.9868V21.9199H12.6756C12.6756 21.9199 12.7218 12.2923 12.6756 11.2956H16.2068V12.7999C16.676 12.076 17.5157 11.0462 19.3893 11.0462C21.7126 11.0462 23.4548 12.5647 23.4548 15.828V21.9199Z" fill="white"/>
</g>
<defs>
<clipPath id="clip0_1:729">
<rect width="29" height="29" fill="white" transform="translate(0.434784)"/>
</clipPath>
</defs>
</svg>
