<svg width="13" height="13" viewBox="0 0 13 13" fill="#fff" xmlns="http://www.w3.org/2000/svg">
<g clip-path="url(#clip0_1:661)">
<path d="M8.61737 6.56634L13 9.33696V3.67871L8.61737 6.56634Z" fill="#fff"/>
<path d="M0 3.67871V9.33696L4.38262 6.56634L0 3.67871Z" fill="#fff"/>
<path d="M12.1875 2.03125H0.812508C0.407071 2.03125 0.085321 2.3335 0.0243835 2.72269L6.50001 6.98913L12.9756 2.72269C12.9147 2.3335 12.5929 2.03125 12.1875 2.03125Z" fill="#fff"/>
<path d="M7.87313 7.05745L6.72344 7.8147C6.65519 7.85939 6.578 7.88133 6.5 7.88133C6.422 7.88133 6.34481 7.85939 6.27656 7.8147L5.12688 7.05664L0.026001 10.2831C0.0885635 10.669 0.408689 10.9688 0.812501 10.9688H12.1875C12.5913 10.9688 12.9114 10.669 12.974 10.2831L7.87313 7.05745Z" fill="#fff"/>
</g>
<defs>
<clipPath id="clip0_1:661">
<rect width="13" height="13" fill="white"/>
</clipPath>
</defs>
</svg>
