<svg width="29" height="29" viewBox="0 0 29 29" fill="none" xmlns="http://www.w3.org/2000/svg">
<g clip-path="url(#clip0_1:727)">
<path d="M26.9085 0H2.0915C0.93634 0 0 0.93634 0 2.0915V26.9085C0 28.0637 0.93634 29 2.0915 29H26.9085C28.0637 29 29 28.0637 29 26.9085V2.0915C29 0.93634 28.0637 0 26.9085 0V0ZM21.1205 11.3056C21.127 11.4483 21.1301 11.5916 21.1301 11.7357C21.1301 16.1335 17.7825 21.2048 11.6607 21.2051H11.6609H11.6607C9.78113 21.2051 8.03213 20.6541 6.55925 19.7101C6.81966 19.7408 7.08472 19.7561 7.3531 19.7561C8.91249 19.7561 10.3475 19.2242 11.4868 18.3314C10.0298 18.3044 8.80142 17.3422 8.3775 16.0198C8.58039 16.0587 8.78903 16.08 9.00298 16.08C9.30676 16.08 9.60103 16.039 9.88069 15.9627C8.35781 15.6578 7.21062 14.3119 7.21062 12.7003C7.21062 12.6853 7.21062 12.6718 7.21106 12.6579C7.65954 12.9072 8.1724 13.0572 8.71845 13.074C7.82481 12.4778 7.23739 11.4584 7.23739 10.3037C7.23739 9.69395 7.40222 9.12268 7.68808 8.63084C9.32933 10.6447 11.7821 11.9691 14.5482 12.1083C14.4911 11.8644 14.4617 11.6104 14.4617 11.3494C14.4617 9.51208 15.9523 8.02151 17.7902 8.02151C18.7476 8.02151 19.6123 8.42618 20.2196 9.07312C20.9778 8.92355 21.6898 8.64655 22.333 8.26533C22.0841 9.04214 21.5566 9.69395 20.8694 10.1061C21.5427 10.0256 22.1843 9.84706 22.7806 9.582C22.3352 10.2495 21.7704 10.8358 21.1205 11.3056Z" fill="white"/>
</g>
<defs>
<clipPath id="clip0_1:727">
<rect width="29" height="29" fill="white"/>
</clipPath>
</defs>
</svg>
