<svg width="278" height="22" viewBox="0 0 278 22" fill="none" xmlns="http://www.w3.org/2000/svg">
<path d="M13.8202 17.652H6.74617L5.61217 21H0.779168L7.63717 2.046H12.9832L19.8412 21H14.9542L13.8202 17.652ZM12.6322 14.088L10.2832 7.149L7.96117 14.088H12.6322ZM33.4034 11.28C34.5014 11.514 35.3834 12.063 36.0494 12.927C36.7154 13.773 37.0484 14.745 37.0484 15.843C37.0484 17.427 36.4904 18.687 35.3744 19.623C34.2764 20.541 32.7374 21 30.7574 21H21.9284V2.046H30.4604C32.3864 2.046 33.8894 2.487 34.9694 3.369C36.0674 4.251 36.6164 5.448 36.6164 6.96C36.6164 8.076 36.3194 9.003 35.7254 9.741C35.1494 10.479 34.3754 10.992 33.4034 11.28ZM26.5454 9.714H29.5694C30.3254 9.714 30.9014 9.552 31.2974 9.228C31.7114 8.886 31.9184 8.391 31.9184 7.743C31.9184 7.095 31.7114 6.6 31.2974 6.258C30.9014 5.916 30.3254 5.745 29.5694 5.745H26.5454V9.714ZM29.9474 17.274C30.7214 17.274 31.3154 17.103 31.7294 16.761C32.1614 16.401 32.3774 15.888 32.3774 15.222C32.3774 14.556 32.1524 14.034 31.7024 13.656C31.2704 13.278 30.6674 13.089 29.8934 13.089H26.5454V17.274H29.9474ZM48.6902 21.189C46.9082 21.189 45.2702 20.775 43.7762 19.947C42.3002 19.119 41.1212 17.967 40.2392 16.491C39.3752 14.997 38.9432 13.323 38.9432 11.469C38.9432 9.615 39.3752 7.95 40.2392 6.474C41.1212 4.998 42.3002 3.846 43.7762 3.018C45.2702 2.19 46.9082 1.776 48.6902 1.776C50.4722 1.776 52.1012 2.19 53.5772 3.018C55.0712 3.846 56.2412 4.998 57.0872 6.474C57.9512 7.95 58.3832 9.615 58.3832 11.469C58.3832 13.323 57.9512 14.997 57.0872 16.491C56.2232 17.967 55.0532 19.119 53.5772 19.947C52.1012 20.775 50.4722 21.189 48.6902 21.189ZM48.6902 16.977C50.2022 16.977 51.4082 16.473 52.3082 15.465C53.2262 14.457 53.6852 13.125 53.6852 11.469C53.6852 9.795 53.2262 8.463 52.3082 7.473C51.4082 6.465 50.2022 5.961 48.6902 5.961C47.1602 5.961 45.9362 6.456 45.0182 7.446C44.1182 8.436 43.6682 9.777 43.6682 11.469C43.6682 13.143 44.1182 14.484 45.0182 15.492C45.9362 16.482 47.1602 16.977 48.6902 16.977ZM65.4878 2.046V13.386C65.4878 14.52 65.7668 15.393 66.3248 16.005C66.8828 16.617 67.7018 16.923 68.7818 16.923C69.8618 16.923 70.6898 16.617 71.2658 16.005C71.8418 15.393 72.1298 14.52 72.1298 13.386V2.046H76.7468V13.359C76.7468 15.051 76.3868 16.482 75.6668 17.652C74.9468 18.822 73.9748 19.704 72.7508 20.298C71.5448 20.892 70.1948 21.189 68.7008 21.189C67.2068 21.189 65.8658 20.901 64.6778 20.325C63.5078 19.731 62.5808 18.849 61.8968 17.679C61.2128 16.491 60.8708 15.051 60.8708 13.359V2.046H65.4878ZM93.6239 2.046V5.745H88.6019V21H83.9849V5.745H78.9629V2.046H93.6239ZM108.521 21.189C107.135 21.189 105.893 20.964 104.795 20.514C103.697 20.064 102.815 19.398 102.149 18.516C101.501 17.634 101.159 16.572 101.123 15.33H106.037C106.109 16.032 106.352 16.572 106.766 16.95C107.18 17.31 107.72 17.49 108.386 17.49C109.07 17.49 109.61 17.337 110.006 17.031C110.402 16.707 110.6 16.266 110.6 15.708C110.6 15.24 110.438 14.853 110.114 14.547C109.808 14.241 109.421 13.989 108.953 13.791C108.503 13.593 107.855 13.368 107.009 13.116C105.785 12.738 104.786 12.36 104.012 11.982C103.238 11.604 102.572 11.046 102.014 10.308C101.456 9.57 101.177 8.607 101.177 7.419C101.177 5.655 101.816 4.278 103.094 3.288C104.372 2.28 106.037 1.776 108.089 1.776C110.177 1.776 111.86 2.28 113.138 3.288C114.416 4.278 115.1 5.664 115.19 7.446H110.195C110.159 6.834 109.934 6.357 109.52 6.015C109.106 5.655 108.575 5.475 107.927 5.475C107.369 5.475 106.919 5.628 106.577 5.934C106.235 6.222 106.064 6.645 106.064 7.203C106.064 7.815 106.352 8.292 106.928 8.634C107.504 8.976 108.404 9.345 109.628 9.741C110.852 10.155 111.842 10.551 112.598 10.929C113.372 11.307 114.038 11.856 114.596 12.576C115.154 13.296 115.433 14.223 115.433 15.357C115.433 16.437 115.154 17.418 114.596 18.3C114.056 19.182 113.264 19.884 112.22 20.406C111.176 20.928 109.943 21.189 108.521 21.189ZM117.977 6.852C118.049 4.926 118.679 3.441 119.867 2.397C121.055 1.353 122.666 0.830999 124.7 0.830999C126.05 0.830999 127.202 1.065 128.156 1.533C129.128 2.001 129.857 2.64 130.343 3.45C130.847 4.26 131.099 5.169 131.099 6.177C131.099 7.365 130.802 8.337 130.208 9.093C129.614 9.831 128.921 10.335 128.129 10.605V10.713C129.155 11.055 129.965 11.622 130.559 12.414C131.153 13.206 131.45 14.223 131.45 15.465C131.45 16.581 131.189 17.571 130.667 18.435C130.163 19.281 129.416 19.947 128.426 20.433C127.454 20.919 126.293 21.162 124.943 21.162C122.783 21.162 121.055 20.631 119.759 19.569C118.481 18.507 117.806 16.905 117.734 14.763H122.216C122.234 15.555 122.459 16.185 122.891 16.653C123.323 17.103 123.953 17.328 124.781 17.328C125.483 17.328 126.023 17.13 126.401 16.734C126.797 16.32 126.995 15.78 126.995 15.114C126.995 14.25 126.716 13.629 126.158 13.251C125.618 12.855 124.745 12.657 123.539 12.657H122.675V8.904H123.539C124.457 8.904 125.195 8.751 125.753 8.445C126.329 8.121 126.617 7.554 126.617 6.744C126.617 6.096 126.437 5.592 126.077 5.232C125.717 4.872 125.222 4.692 124.592 4.692C123.908 4.692 123.395 4.899 123.053 5.313C122.729 5.727 122.54 6.24 122.486 6.852H117.977ZM144.96 2.046V21H140.343V2.046H144.96ZM165.262 21H160.645L152.923 9.309V21H148.306V2.046H152.923L160.645 13.791V2.046H165.262V21ZM185.565 21H180.948L173.226 9.309V21H168.609V2.046H173.226L180.948 13.791V2.046H185.565V21ZM197.876 21.189C196.094 21.189 194.456 20.775 192.962 19.947C191.486 19.119 190.307 17.967 189.425 16.491C188.561 14.997 188.129 13.323 188.129 11.469C188.129 9.615 188.561 7.95 189.425 6.474C190.307 4.998 191.486 3.846 192.962 3.018C194.456 2.19 196.094 1.776 197.876 1.776C199.658 1.776 201.287 2.19 202.763 3.018C204.257 3.846 205.427 4.998 206.273 6.474C207.137 7.95 207.569 9.615 207.569 11.469C207.569 13.323 207.137 14.997 206.273 16.491C205.409 17.967 204.239 19.119 202.763 19.947C201.287 20.775 199.658 21.189 197.876 21.189ZM197.876 16.977C199.388 16.977 200.594 16.473 201.494 15.465C202.412 14.457 202.871 13.125 202.871 11.469C202.871 9.795 202.412 8.463 201.494 7.473C200.594 6.465 199.388 5.961 197.876 5.961C196.346 5.961 195.122 6.456 194.204 7.446C193.304 8.436 192.854 9.777 192.854 11.469C192.854 13.143 193.304 14.484 194.204 15.492C195.122 16.482 196.346 16.977 197.876 16.977ZM227.93 2.046L221.207 21H215.429L208.706 2.046H213.62L218.318 16.356L223.043 2.046H227.93ZM241.659 17.652H234.585L233.451 21H228.618L235.476 2.046H240.822L247.68 21H242.793L241.659 17.652ZM240.471 14.088L238.122 7.149L235.8 14.088H240.471ZM263.402 2.046V5.745H258.38V21H253.763V5.745H248.741V2.046H263.402ZM270.336 5.745V9.579H276.519V13.143H270.336V17.301H277.329V21H265.719V2.046H277.329V5.745H270.336Z" fill="#F4F9FC"/>
</svg>
