<svg width="37" height="41" viewBox="0 0 37 41" fill="none" xmlns="http://www.w3.org/2000/svg">
<path d="M34.798 9.70477L17.9839 19.4095L14.5991 17.4716L28.0535 9.70477L24.6687 7.76678L11.2144 15.5286L1.06021 9.70477L17.8744 0L21.2591 1.94293L7.80977 9.70477L11.1945 11.6477L24.6438 3.88092L34.798 9.70477Z" fill="white"/>
<path d="M16.9784 21.1642L16.9684 25.0303L3.42953 17.2635L3.41957 21.1296L16.9585 28.8915L16.9236 40.4799L0 30.7751L0.0099557 26.9139L13.5489 34.6758L13.5638 30.8146L0.0199114 23.0478L0.0547533 11.4595L16.9784 21.1642Z" fill="white"/>
<path d="M36.0972 11.4946L36.1071 15.3558L22.5682 23.1176L22.5781 26.9837L36.122 19.2169L36.1519 30.8102L19.2282 40.515L19.2183 36.6489L32.7572 28.8871L32.7473 25.021L19.2083 32.7878L19.1735 21.1994L36.0972 11.4946Z" fill="white"/>
</svg>
