<svg width="599" height="68" viewBox="0 0 599 68" fill="none" xmlns="http://www.w3.org/2000/svg">
<path d="M0.228668 34.264C0.228668 27.816 1.62367 22.081 4.41367 17.059C7.20367 11.975 11.0787 8.038 16.0387 5.248C21.0607 2.396 26.7337 0.969996 33.0577 0.969996C40.8077 0.969996 47.4417 3.016 52.9597 7.108C58.4777 11.2 62.1667 16.78 64.0267 23.848H46.5427C45.2407 21.12 43.3807 19.043 40.9627 17.617C38.6067 16.191 35.9097 15.478 32.8717 15.478C27.9737 15.478 24.0057 17.183 20.9677 20.593C17.9297 24.003 16.4107 28.56 16.4107 34.264C16.4107 39.968 17.9297 44.525 20.9677 47.935C24.0057 51.345 27.9737 53.05 32.8717 53.05C35.9097 53.05 38.6067 52.337 40.9627 50.911C43.3807 49.485 45.2407 47.408 46.5427 44.68H64.0267C62.1667 51.748 58.4777 57.328 52.9597 61.42C47.4417 65.45 40.8077 67.465 33.0577 67.465C26.7337 67.465 21.0607 66.07 16.0387 63.28C11.0787 60.428 7.20367 56.491 4.41367 51.469C1.62367 46.447 0.228668 40.712 0.228668 34.264ZM104.642 67.651C98.5035 67.651 92.8615 66.225 87.7155 63.373C82.6315 60.521 78.5705 56.553 75.5325 51.469C72.5565 46.323 71.0685 40.557 71.0685 34.171C71.0685 27.785 72.5565 22.05 75.5325 16.966C78.5705 11.882 82.6315 7.914 87.7155 5.062C92.8615 2.21 98.5035 0.783999 104.642 0.783999C110.78 0.783999 116.391 2.21 121.475 5.062C126.621 7.914 130.651 11.882 133.565 16.966C136.541 22.05 138.029 27.785 138.029 34.171C138.029 40.557 136.541 46.323 133.565 51.469C130.589 56.553 126.559 60.521 121.475 63.373C116.391 66.225 110.78 67.651 104.642 67.651ZM104.642 53.143C109.85 53.143 114.004 51.407 117.104 47.935C120.266 44.463 121.847 39.875 121.847 34.171C121.847 28.405 120.266 23.817 117.104 20.407C114.004 16.935 109.85 15.199 104.642 15.199C99.3715 15.199 95.1555 16.904 91.9935 20.314C88.8935 23.724 87.3435 28.343 87.3435 34.171C87.3435 39.937 88.8935 44.556 91.9935 48.028C95.1555 51.438 99.3715 53.143 104.642 53.143ZM205.28 67H189.377L162.779 26.731V67H146.876V1.714H162.779L189.377 42.169V1.714H205.28V67ZM263.773 1.714V14.455H246.475V67H230.572V14.455H213.274V1.714H263.773ZM312.395 55.468H288.029L284.123 67H267.476L291.098 1.714H309.512L333.134 67H316.301L312.395 55.468ZM308.303 43.192L300.212 19.291L292.214 43.192H308.303ZM337.626 34.264C337.626 27.816 339.021 22.081 341.811 17.059C344.601 11.975 348.476 8.038 353.436 5.248C358.458 2.396 364.131 0.969996 370.455 0.969996C378.205 0.969996 384.839 3.016 390.357 7.108C395.875 11.2 399.564 16.78 401.424 23.848H383.94C382.638 21.12 380.778 19.043 378.36 17.617C376.004 16.191 373.307 15.478 370.269 15.478C365.371 15.478 361.403 17.183 358.365 20.593C355.327 24.003 353.808 28.56 353.808 34.264C353.808 39.968 355.327 44.525 358.365 47.935C361.403 51.345 365.371 53.05 370.269 53.05C373.307 53.05 376.004 52.337 378.36 50.911C380.778 49.485 382.638 47.408 383.94 44.68H401.424C399.564 51.748 395.875 57.328 390.357 61.42C384.839 65.45 378.205 67.465 370.455 67.465C364.131 67.465 358.458 66.07 353.436 63.28C348.476 60.428 344.601 56.491 341.811 51.469C339.021 46.447 337.626 40.712 337.626 34.264ZM458.128 1.714V14.455H440.83V67H424.927V14.455H407.629V1.714H458.128ZM501.441 1.714V40.774C501.441 44.68 502.402 47.687 504.324 49.795C506.246 51.903 509.067 52.957 512.787 52.957C516.507 52.957 519.359 51.903 521.343 49.795C523.327 47.687 524.319 44.68 524.319 40.774V1.714H540.222V40.681C540.222 46.509 538.982 51.438 536.502 55.468C534.022 59.498 530.674 62.536 526.458 64.582C522.304 66.628 517.654 67.651 512.508 67.651C507.362 67.651 502.743 66.659 498.651 64.675C494.621 62.629 491.428 59.591 489.072 55.561C486.716 51.469 485.538 46.509 485.538 40.681V1.714H501.441ZM575.012 67.651C570.238 67.651 565.96 66.876 562.178 65.326C558.396 63.776 555.358 61.482 553.064 58.444C550.832 55.406 549.654 51.748 549.53 47.47H566.456C566.704 49.888 567.541 51.748 568.967 53.05C570.393 54.29 572.253 54.91 574.547 54.91C576.903 54.91 578.763 54.383 580.127 53.329C581.491 52.213 582.173 50.694 582.173 48.772C582.173 47.16 581.615 45.827 580.499 44.773C579.445 43.719 578.112 42.851 576.5 42.169C574.95 41.487 572.718 40.712 569.804 39.844C565.588 38.542 562.147 37.24 559.481 35.938C556.815 34.636 554.521 32.714 552.599 30.172C550.677 27.63 549.716 24.313 549.716 20.221C549.716 14.145 551.917 9.402 556.319 5.992C560.721 2.52 566.456 0.783999 573.524 0.783999C580.716 0.783999 586.513 2.52 590.915 5.992C595.317 9.402 597.673 14.176 597.983 20.314H580.778C580.654 18.206 579.879 16.563 578.453 15.385C577.027 14.145 575.198 13.525 572.966 13.525C571.044 13.525 569.494 14.052 568.316 15.106C567.138 16.098 566.549 17.555 566.549 19.477C566.549 21.585 567.541 23.228 569.525 24.406C571.509 25.584 574.609 26.855 578.825 28.219C583.041 29.645 586.451 31.009 589.055 32.311C591.721 33.613 594.015 35.504 595.937 37.984C597.859 40.464 598.82 43.657 598.82 47.563C598.82 51.283 597.859 54.662 595.937 57.7C594.077 60.738 591.349 63.156 587.753 64.954C584.157 66.752 579.91 67.651 575.012 67.651Z" fill="#ECF2F7"/>
</svg>
